Coordinates
version=1
nRows=19
nColumns=36
inDegrees=yes

Units are S.I. units (second, meters, Newtons, ...)
If the header above contains a line with 'inDegrees', this indicates whether rotational values are in degrees (yes) or radians (no).

endheader
time	pelvis_tilt	pelvis_list	pelvis_rotation	pelvis_tx	pelvis_ty	pelvis_tz	hip_flexion_r	hip_adduction_r	hip_rotation_r	knee_angle_r	knee_angle_r_beta	ankle_angle_r	subtalar_angle_r	mtp_angle_r	hip_flexion_l	hip_adduction_l	hip_rotation_l	knee_angle_l	knee_angle_l_beta	ankle_angle_l	subtalar_angle_l	mtp_angle_l	lumbar_extension	lumbar_bending	lumbar_rotation	arm_flex_r	arm_add_r	arm_rot_r	elbow_flex_r	pro_sup_r	arm_flex_l	arm_add_l	arm_rot_l	elbow_flex_l	pro_sup_l
     -1.15000000	     -3.84623191	     -2.01329271	     -0.12004818	     -1.34730001	      1.12862486	     -0.19885484	      4.08959950	      8.78976703	     -2.17349793	      9.27160483	      0.16182003	      6.07862539	     -8.83439364	     -6.58937159	     32.42407093	      0.89827524	      1.15404999	     50.77250868	      0.88614745	      7.89317848	    -14.29801771	     -6.58937159	     -8.96731271	      2.12166581	      0.67756687	      1.58679070	     -2.73025628	     -7.73036701	     52.43115954	     95.15919207	      2.63020286	     -1.12965468	     -8.90769877	     37.05867740	     89.02582950
     -1.14000000	     -4.09317503	     -2.69630465	     -0.39612844	     -1.33854822	      1.12830229	     -0.19796394	      3.55944663	      9.61166078	     -2.48487050	      9.15137373	      0.15972160	      6.25353898	     -8.31893240	     -6.79640606	     33.06319109	     -0.09094296	      0.71712421	     49.79674385	      0.86911714	      8.98594666	    -12.61006819	     -6.79640606	     -8.58959648	      2.69517435	      0.52579990	      1.22883398	     -2.73664644	     -8.50156700	     54.01718281	     95.66768475	      1.75510907	     -0.68374549	    -11.70437013	     37.69942157	     91.91664741
     -1.13000000	     -4.38123476	     -3.33432758	     -0.67330531	     -1.32954968	      1.12777695	     -0.19692174	      3.05832234	     10.42691602	     -2.52624583	      9.09705262	      0.15877352	      6.06800703	     -8.28747888	     -6.82852519	     33.72671301	     -1.04807883	      0.27627064	     48.73790546	      0.85063692	     10.00839103	    -10.96241000	     -6.82852519	     -8.09554630	      3.23320500	      0.30863735	      0.98849469	     -2.90694301	     -8.39068865	     55.13798295	     93.60819131	      0.96148597	     -0.60569203	    -12.77436907	     37.95893165	     90.20048633
     -1.12000000	     -4.57632160	     -3.90167939	     -0.83885345	     -1.32022361	      1.12713705	     -0.19595307	      2.47382707	     11.14521028	     -3.14951787	      9.22056444	      0.16092921	      6.02828585	     -7.36334959	     -6.88110751	     34.31636409	     -1.86761181	     -0.02746259	     47.59848535	      0.83075029	     10.94978943	     -9.44042035	     -6.88110751	     -7.71222804	      3.66967637	      0.10949917	      0.69496243	     -3.02232733	     -8.34122916	     56.17634720	     92.31573153	      0.28972057	     -0.43961905	    -14.48862237	     38.20247135	     89.98611137
     -1.11000000	     -4.91967027	     -4.40873851	     -0.94109576	     -1.31058254	      1.12596804	     -0.19496777	      2.07323420	     11.85889335	     -3.44445636	      9.47835809	      0.16542856	      5.01829215	     -7.42875100	     -6.87394283	     35.10939150	     -2.57601202	     -0.18593942	     46.36421308	      0.80920817	     11.86995101	     -8.13716562	     -6.87394283	     -7.07837259	      4.07991599	     -0.23469266	      0.49518620	     -3.10654062	     -8.11427720	     56.63878986	     91.56424785	     -0.39889423	     -0.69640896	    -14.75884225	     38.31440835	     89.56582323
     -1.10000000	     -5.04167902	     -4.79097048	     -0.94504561	     -1.30075888	      1.12491484	     -0.19410442	      1.47733105	     12.39304860	     -4.29603987	      9.88943170	      0.17260314	      4.08600316	     -6.43273702	     -6.92690647	     35.68536403	     -3.11946241	     -0.30137579	     44.97024505	      0.78487884	     12.62583501	     -6.93482365	     -6.92690647	     -6.73125976	      4.33098560	     -0.68826660	      0.37510954	     -3.17982874	     -7.67938132	     56.91309436	     91.39643767	     -0.98623824	     -0.93542004	    -15.55393635	     38.48912825	     91.66527933
     -1.09000000	     -5.24459976	     -5.07505764	     -0.93878031	     -1.29092004	      1.12355425	     -0.19326629	      1.03147338	     12.85183100	     -4.69547553	     10.36503038	      0.18090391	      2.26837879	     -6.31303228	     -6.93164043	     36.37562784	     -3.55411568	     -0.38695759	     43.45950711	      0.75851149	     13.28714052	     -5.80725420	     -6.93164043	     -6.21883901	      4.45649171	     -1.01877772	      0.13854768	     -3.26414494	     -7.20040118	     56.91139803	     91.04096526	     -1.26574976	     -1.34483941	    -15.53595634	     38.16690700	     91.96975115
     -1.08000000	     -5.54461489	     -5.29639052	     -0.80497041	     -1.28116998	      1.12189299	     -0.19280424	      0.77857802	     13.17184754	     -5.52360996	     10.84515442	      0.18928365	      0.39369170	     -5.69426509	     -7.01500955	     37.21717863	     -3.81509465	     -0.32431667	     41.85868436	      0.73057186	     13.75192390	     -4.85815294	     -7.01500955	     -5.55801676	      4.49764091	     -1.49054876	     -0.25534023	     -3.23914081	     -7.03611319	     57.00447503	     91.33955085	     -1.52881974	     -1.62889761	    -16.14212504	     38.03130472	     94.27059093
     -1.07000000	     -5.75698366	     -5.40835822	     -0.68009440	     -1.27172852	      1.12047300	     -0.19247751	      0.43644598	     13.36027429	     -5.99700359	     11.08112143	      0.19340205	     -1.67241736	     -5.60860818	     -7.04741867	     37.91116345	     -3.96696429	     -0.33540179	     40.10060837	      0.69988765	     13.95640605	     -4.07308876	     -7.04741867	     -4.99454156	      4.42420502	     -2.00298953	     -0.68653262	     -3.28877091	     -6.64730549	     57.20467273	     90.55921065	     -1.66019524	     -2.01987841	    -15.97506078	     37.76665007	     93.96703221
     -1.06000000	     -6.05554241	     -5.41482628	     -0.61156987	     -1.26254673	      1.11913210	     -0.19212961	      0.22921970	     13.40514059	     -6.30134397	     11.12008889	      0.19408216	     -3.28664034	     -5.65436220	     -7.07015971	     38.60675373	     -4.04047873	     -0.48005613	     38.20017027	      0.66671875	     13.91204181	     -3.41389590	     -7.07015971	     -4.29066118	      4.18312644	     -2.44371018	     -1.24580316	     -3.31153285	     -6.34777443	     57.42200195	     89.62213346	     -1.61854504	     -2.30194463	    -16.16031847	     37.24905789	     93.28550254
     -1.05000000	     -6.29523023	     -5.35416752	     -0.45327958	     -1.25349185	      1.11807675	     -0.19197818	     -0.05366918	     13.30393627	     -7.02405458	     10.85903440	      0.18952590	     -3.60234229	     -5.06262923	     -7.12299561	     39.14089276	     -3.96745414	     -0.59002749	     36.19232588	      0.63167525	     13.69714785	     -2.82223777	     -7.12299561	     -3.73391265	      3.82012982	     -2.93419627	     -2.04427692	     -3.16658348	     -6.67810389	     58.29712115	     90.31410690	     -1.67359567	     -2.47222020	    -16.98775049	     37.32590451	     95.05352500
     -1.04000000	     -6.52962120	     -5.11147686	     -0.46061577	     -1.24456358	      1.11748511	     -0.19148621	     -0.39111113	     13.03689412	     -7.07746699	     10.29465768	      0.17967567	     -3.26304922	     -5.24968540	     -7.12981660	     39.46535700	     -3.82202570	     -0.97995712	     34.00950721	      0.59357788	     13.26925638	     -2.34053460	     -7.12981660	     -3.21461005	      3.20392610	     -3.29824816	     -2.82374334	     -3.09406965	     -6.64609321	     59.11614425	     90.18852540	     -1.57341725	     -2.65780110	    -17.58309152	     37.09082182	     95.40438371
     -1.03000000	     -6.72815789	     -4.87641010	     -0.40879756	     -1.23564769	      1.11708711	     -0.19107913	     -0.80591463	     12.74882236	     -7.39952256	      9.49975787	      0.16580205	     -1.60504794	     -4.90302693	     -7.16589064	     39.66101180	     -3.62590614	     -1.33325766	     31.79931001	      0.55500266	     12.80554272	     -1.80946546	     -7.16589064	     -2.80169844	      2.57771627	     -3.71100575	     -3.63662372	     -2.99230595	     -6.65467924	     60.06154462	     89.25622662	     -1.58391040	     -2.84723588	    -18.01565200	     37.27793289	     95.05555560
     -1.02000000	     -6.92822468	     -4.55445885	     -0.45120046	     -1.22666175	      1.11691151	     -0.19043008	     -1.26302391	     12.38059098	     -7.48896211	      8.56782482	      0.14953675	      0.74658376	     -4.59173631	     -7.21420775	     39.70253612	     -3.38977607	     -1.81812135	     29.49521844	      0.51478868	     12.27407919	     -1.28220815	     -7.21420775	     -2.40098838	      1.81178260	     -3.96983425	     -4.42010202	     -2.83903877	     -6.77347652	     60.78957704	     89.45904601	     -1.48849647	     -2.95058373	    -18.80161304	     37.31406498	     96.29830273
     -1.01000000	     -7.06077821	     -4.19978125	     -0.52044378	     -1.21764819	      1.11683753	     -0.18976812	     -1.82855872	     11.99059139	     -7.40582113	      7.58539590	      0.13239013	      3.42680948	     -4.30092015	     -7.25428303	     39.55581478	     -3.09204016	     -2.25361056	     27.12135841	      0.47335700	     11.68927183	     -0.79827935	     -7.25428303	     -2.16388566	      1.01914154	     -4.17836334	     -5.09189639	     -2.72106856	     -6.73278156	     61.36358119	     89.40034214	     -1.33990906	     -3.08730059	    -19.35019734	     37.42078630	     97.10341978
     -1.00000000	     -7.06497538	     -3.81128269	     -0.62132594	     -1.20854356	      1.11689533	     -0.18890227	     -2.60654495	     11.58100677	     -7.18147550	      6.52541090	      0.11388991	      5.91596216	     -3.89935654	     -7.31239427	     39.13980363	     -2.79328865	     -2.81585613	     24.62005489	      0.42970102	     10.98029955	     -0.25869182	     -7.31239427	     -2.11431067	      0.14145444	     -4.31745471	     -5.66470775	     -2.53359536	     -6.70053823	     61.61760146	     89.92490808	     -1.17925707	     -3.22738596	    -19.93183724	     37.58046590	     98.77188470
     -0.99000000	     -6.94896708	     -3.46249962	     -0.75101632	     -1.19941670	      1.11673912	     -0.18802709	     -3.56321195	     11.22345717	     -6.81320706	      5.48272596	      0.09569162	      8.17424353	     -3.49810802	     -7.32489581	     38.54382885	     -2.50302886	     -3.26151148	     22.12123364	      0.38608836	     10.24655517	      0.16606981	     -7.32489581	     -2.24961637	     -0.66991553	     -4.38468835	     -6.07948774	     -2.41517867	     -6.39230171	     61.54315007	     88.88043504	     -0.94633100	     -3.47651849	    -19.72183219	     37.70188769	     97.87714782
     -0.98000000	     -6.79016660	     -3.15970374	     -0.94072356	     -1.19023911	      1.11613580	     -0.18705632	     -4.59030938	     10.91306344	     -6.35971573	      4.52931287	      0.07905142	     10.11691138	     -3.04924173	     -7.33826767	     37.87146703	     -2.28107421	     -3.70549818	     19.66201591	      0.34316692	      9.49236084	      0.57040480	     -7.33826767	     -2.44046706	     -1.42791380	     -4.30164931	     -6.40926641	     -2.34562756	     -6.06310853	     61.10661851	     87.94607286	     -0.64633927	     -3.70728124	    -19.39699598	     37.78142862	     97.11668249
     -0.97000000	     -6.62212422	     -3.00951810	     -1.06153541	     -1.18098440	      1.11488986	     -0.18625098	     -5.65216747	     10.76285737	     -6.16971571	      3.63694146	      0.06347660	     11.73148470	     -2.24591249	     -7.35219364	     37.24358616	     -2.13673390	     -3.88986500	     17.37283785	      0.30321322	      8.79868942	      0.92616845	     -7.35219364	     -2.65880961	     -1.99728830	     -4.24386801	     -6.72615945	     -2.15744299	     -6.29558024	     60.46260492	     88.53898177	     -0.32899143	     -3.87212961	    -19.35636787	     37.92572451	     98.35175779
